<?xml version="1.0" encoding="UTF-8"?>
<svg xmlns="http://www.w3.org/2000/svg" xmlns:xlink="http://www.w3.org/1999/xlink" version="1.1" id="Layer_1" x="0px" y="0px" viewBox="0 0 525 131" style="enable-background:new 0 0 525 131;" xml:space="preserve">
<style type="text/css">
	.st0{fill:#003B6E;}
</style>
<g>
	<path class="st0" d="M24.6,98.9c-1.9,0-3.5-0.2-4.9-0.5l-0.3-0.1V80.4h5.2c6.7,0,10.5,3.4,10.5,9.3C35.1,95.6,31.2,98.9,24.6,98.9    M44.9,114.5c-1.9,0-3.5-0.8-5.4-2.7c-1.7-1.8-3.2-3.8-5-6.7l-0.2-0.3l0.4-0.1c6.2-2.5,9.7-7.9,9.7-14.9c0-5.1-1.8-9.3-5.1-12.2   c-3.3-2.9-8.2-4.4-14-4.4H10.4v46.1c0,0.9,0.3,1.5,2,1.5h7v-15.4l0.4,0.2c1.3,0.5,3.5,0.8,5.6,0.9l0.2,0l0.1,0.2   c1.9,4.1,3.8,7.3,6.1,10.2c2.9,3.5,5.3,4.8,8.7,4.8c4,0,5.9-2,5.9-3.8c0-1.1-0.2-2.2-0.5-3.2H44.9z"></path>
	<path class="st0" d="M86.4,73.1h-35C51,75,50.8,77,50.8,78.4c0,1.8,0.8,2.1,1.7,2.1h12.4v38.8c0,0.9,0.3,1.5,2,1.5h7V80.4h14.1   v-5.3C87.9,73.4,87.2,73.1,86.4,73.1"></path>
	<path class="st0" d="M115.5,113.6H111c-3.8,0-5.1-1.8-5.1-7.3V100h8.9c7.3,0,8.8,3.6,8.8,6.7C123.6,111.3,120.8,113.6,115.5,113.6    M105.8,80.2h8.2c5.1,0,8,2.4,8,6.5c0,4.2-2.8,6.5-8,6.5h-8.2V80.2z M124.8,96.4l-0.8-0.3l0.8-0.4c4-1.7,6.3-5.5,6.3-10   c0-7.8-6.3-12.6-16.6-12.6H96.8v33.6c0,9.6,3.9,13.9,12.5,13.9h6.2c10.9,0,17.2-4.9,17.2-13.3C132.7,102.1,129.7,98,124.8,96.4"></path>
	<path class="st0" d="M121.2,38.9h3.6v7.4h-3.6V38.9z M121.2,30h3.6v3.6h-3.6V30z M102,38.9h3.6v7.4l-3.6,0L102,38.9z M94.3,46.4   H65.4v0h0c0,0,0,0,0,0c-2.8-12.7-14.2-22.2-27.8-21.9c-15.2,0.4-27.2,13.1-27.2,28.3v5.4c0,0,0,0,0,0h11.7c0,0,0,0,0,0v-5.4   c0-8.8,7-16.3,15.8-16.5c6.9-0.1,12.8,4.1,15.2,10.1c0,0,0,0,0,0h0c0.7,1.8,1.1,3.8,1.1,5.9v5.9h11.1h28.9v0h19.1h19.1V46.4V21.1   l-9.6-6.6l-9.6,6.6v12.8l-9.6-6.6l-9.6,6.6V46.4z"></path>
	<path class="st0" d="M152.1,111.3h3.1c1,0,1.8-0.3,2.4-0.8c0.6-0.5,0.9-1.2,0.9-2.1c0-0.9-0.3-1.7-0.8-2.2   c-0.5-0.5-1.3-0.8-2.4-0.8h-3.2V111.3z M155.2,103c2,0,3.6,0.5,4.7,1.4c1.1,0.9,1.6,2.2,1.6,3.9c0,1.2-0.3,2.1-0.8,2.9   c-0.6,0.8-1.4,1.4-2.4,1.8l3.9,7.3v0.2H159l-3.5-6.7h-3.4v6.7h-3V103H155.2z"></path>
	<path class="st0" d="M167,112.8h5.6v-0.2c-0.1-1-0.3-1.7-0.8-2.2c-0.5-0.5-1.1-0.7-1.9-0.7c-0.8,0-1.4,0.3-1.9,0.8   C167.4,111,167.1,111.8,167,112.8 M164,114.4V114c0-1.3,0.3-2.5,0.8-3.5c0.5-1,1.2-1.8,2.1-2.4c0.9-0.6,1.9-0.9,3-0.9   c1.8,0,3.1,0.6,4.1,1.7c1,1.1,1.4,2.7,1.4,4.8v1.2h-8.5c0.1,1.1,0.4,1.9,1.1,2.5c0.6,0.6,1.4,0.9,2.4,0.9c1.3,0,2.4-0.5,3.3-1.6   l1.6,1.5c-0.5,0.8-1.2,1.4-2.1,1.8c-0.9,0.4-1.8,0.6-2.9,0.6c-1.9,0-3.4-0.6-4.5-1.7C164.6,117.8,164,116.3,164,114.4"></path>
	<path class="st0" d="M180.3,116.4c0,0.7,0.3,1.2,0.8,1.6c0.5,0.4,1.1,0.6,1.9,0.6c0.8,0,1.4-0.1,1.8-0.4c0.4-0.3,0.6-0.7,0.6-1.1   c0-0.5-0.2-0.9-0.6-1.2c-0.4-0.3-1.1-0.5-2.1-0.7c-1-0.2-1.8-0.5-2.5-0.8c-1.5-0.7-2.2-1.7-2.2-3.1c0-1.1,0.5-2.1,1.4-2.8   c0.9-0.8,2.1-1.1,3.6-1.1c1.6,0,2.8,0.4,3.8,1.1c1,0.8,1.4,1.8,1.4,3h-2.9c0-0.6-0.2-1-0.6-1.4c-0.4-0.4-1-0.6-1.7-0.6   c-0.6,0-1.2,0.1-1.6,0.4c-0.4,0.3-0.6,0.7-0.6,1.2c0,0.4,0.2,0.8,0.6,1c0.4,0.2,1.1,0.5,2.3,0.7c1.1,0.3,2,0.6,2.7,0.9   c0.7,0.3,1.1,0.8,1.5,1.3c0.3,0.5,0.5,1.1,0.5,1.8c0,1.2-0.5,2.1-1.5,2.8c-1,0.7-2.2,1.1-3.8,1.1c-1.1,0-2-0.2-2.9-0.6   c-0.8-0.4-1.5-0.9-1.9-1.6c-0.5-0.7-0.7-1.4-0.7-2.2H180.3z"></path>
	<path class="st0" d="M194.1,120.5h-2.9v-13h2.9V120.5z M191,104.2c0-0.4,0.1-0.8,0.4-1.1c0.3-0.3,0.7-0.4,1.2-0.4   c0.5,0,0.9,0.1,1.2,0.4c0.3,0.3,0.4,0.7,0.4,1.1c0,0.4-0.1,0.8-0.4,1.1c-0.3,0.3-0.7,0.4-1.2,0.4c-0.5,0-0.9-0.1-1.2-0.4   C191.2,105,191,104.6,191,104.2"></path>
	<path class="st0" d="M200,114.2c0,1.3,0.3,2.4,0.8,3.1c0.5,0.7,1.2,1.1,2.2,1.1c1.2,0,2.1-0.5,2.6-1.6v-5.5c-0.5-1-1.4-1.6-2.6-1.6   c-0.9,0-1.7,0.4-2.2,1.1C200.3,111.5,200,112.7,200,114.2 M197.1,113.9c0-2,0.5-3.6,1.4-4.8c0.9-1.2,2.2-1.8,3.7-1.8   c1.4,0,2.5,0.5,3.3,1.4v-6.6h2.9v18.4h-2.6l-0.1-1.3c-0.9,1.1-2,1.6-3.5,1.6c-1.5,0-2.8-0.6-3.7-1.8   C197.6,117.7,197.1,116,197.1,113.9"></path>
	<path class="st0" d="M214.4,112.8h5.6v-0.2c-0.1-1-0.3-1.7-0.8-2.2c-0.5-0.5-1.1-0.7-1.9-0.7c-0.8,0-1.4,0.3-1.9,0.8   C214.8,111,214.5,111.8,214.4,112.8 M211.4,114.4V114c0-1.3,0.2-2.5,0.8-3.5c0.5-1,1.2-1.8,2.1-2.4c0.9-0.6,1.9-0.9,3-0.9   c1.8,0,3.1,0.6,4.1,1.7c1,1.1,1.4,2.7,1.4,4.8v1.2h-8.5c0.1,1.1,0.4,1.9,1.1,2.5c0.6,0.6,1.4,0.9,2.4,0.9c1.3,0,2.4-0.5,3.3-1.6   l1.6,1.5c-0.5,0.8-1.2,1.4-2.1,1.8c-0.9,0.4-1.8,0.6-2.9,0.6c-1.9,0-3.4-0.6-4.5-1.7C211.9,117.8,211.4,116.3,211.4,114.4"></path>
	<path class="st0" d="M225.4,107.5h2.8l0.1,1.5c1-1.2,2.2-1.7,3.8-1.7c2.7,0,4.1,1.5,4.1,4.6v8.6h-2.9v-8.4c0-0.8-0.2-1.4-0.5-1.8   c-0.4-0.4-0.9-0.6-1.7-0.6c-1.2,0-2.1,0.5-2.6,1.6v9.2h-2.9V107.5z"></path>
	<path class="st0" d="M238,107.5h2.1v-3.2h2.9v3.2h2.3v2.2h-2.3v7.2c0,0.5,0.1,0.9,0.3,1.1c0.2,0.2,0.5,0.3,1.1,0.3   c0.3,0,0.7,0,1-0.1v2.3c-0.7,0.2-1.3,0.3-1.9,0.3c-2.2,0-3.4-1.2-3.4-3.7v-7.3H238V107.5z"></path>
	<path class="st0" d="M251,120.5h-2.9v-13h2.9V120.5z M247.9,104.2c0-0.4,0.1-0.8,0.4-1.1c0.3-0.3,0.7-0.4,1.2-0.4   c0.5,0,0.9,0.1,1.2,0.4c0.3,0.3,0.4,0.7,0.4,1.1c0,0.4-0.1,0.8-0.4,1.1c-0.3,0.3-0.7,0.4-1.2,0.4c-0.5,0-0.9-0.1-1.2-0.4   C248.1,105,247.9,104.6,247.9,104.2"></path>
	<path class="st0" d="M257,116.6c0,0.6,0.2,1,0.6,1.3c0.4,0.3,0.9,0.5,1.5,0.5c0.6,0,1.1-0.1,1.6-0.4c0.5-0.3,0.9-0.7,1.1-1.1v-2.4   h-1.6c-1.1,0-1.9,0.2-2.4,0.6C257.3,115.4,257,115.9,257,116.6 M254.1,116.9c0-1.4,0.5-2.4,1.5-3.2c1-0.7,2.5-1.1,4.4-1.1h1.8v-0.9   c0-0.7-0.2-1.2-0.6-1.6c-0.4-0.4-0.9-0.6-1.7-0.6c-0.7,0-1.2,0.2-1.6,0.5c-0.4,0.3-0.6,0.8-0.6,1.3h-2.9c0-0.7,0.2-1.4,0.7-2   c0.5-0.6,1.1-1.1,1.9-1.5c0.8-0.4,1.7-0.5,2.7-0.5c1.5,0,2.7,0.4,3.6,1.1c0.9,0.8,1.4,1.8,1.4,3.2v5.8c0,1.2,0.2,2.1,0.5,2.8v0.2   h-3c-0.1-0.2-0.2-0.7-0.3-1.2c-0.9,1-2.1,1.5-3.4,1.5c-1.3,0-2.4-0.4-3.2-1.1C254.5,118.9,254.1,118,254.1,116.9"></path>
</g>
<rect x="268.4" y="102.1" class="st0" width="2.9" height="18.4"></rect>
<polygon class="st0" points="280.3,105.5 280.3,103 294.1,103 294.1,105.5 288.7,105.5 288.7,120.5 285.7,120.5 285.7,105.5 "></polygon>
<g>
	<path class="st0" d="M296,112.8h5.6v-0.2c-0.1-1-0.3-1.7-0.8-2.2c-0.5-0.5-1.1-0.7-1.9-0.7c-0.8,0-1.4,0.3-1.9,0.8   C296.4,111,296.1,111.8,296,112.8 M293,114.4V114c0-1.3,0.3-2.5,0.8-3.5c0.5-1,1.2-1.8,2.1-2.4c0.9-0.6,1.9-0.9,3-0.9   c1.8,0,3.1,0.6,4.1,1.7c1,1.1,1.5,2.7,1.5,4.8v1.2h-8.5c0.1,1.1,0.4,1.9,1.1,2.5c0.6,0.6,1.4,0.9,2.4,0.9c1.3,0,2.4-0.5,3.3-1.6   l1.6,1.5c-0.5,0.8-1.2,1.4-2.1,1.8c-0.9,0.4-1.8,0.6-2.9,0.6c-1.9,0-3.4-0.6-4.5-1.7C293.6,117.8,293,116.3,293,114.4"></path>
	<path class="st0" d="M307,107.5h2.8l0.1,1.5c1-1.2,2.2-1.7,3.8-1.7c2.7,0,4.1,1.5,4.1,4.6v8.6h-2.9v-8.4c0-0.8-0.2-1.4-0.5-1.8   c-0.4-0.4-0.9-0.6-1.8-0.6c-1.2,0-2.1,0.5-2.6,1.6v9.2H307V107.5z"></path>
	<path class="st0" d="M323.5,116.6c0,0.6,0.2,1,0.6,1.3c0.4,0.3,0.9,0.5,1.5,0.5c0.6,0,1.1-0.1,1.6-0.4c0.5-0.3,0.9-0.7,1.1-1.1   v-2.4h-1.6c-1.1,0-1.9,0.2-2.4,0.6C323.8,115.4,323.5,115.9,323.5,116.6 M320.6,116.9c0-1.4,0.5-2.4,1.5-3.2c1-0.7,2.5-1.1,4.4-1.1   h1.8v-0.9c0-0.7-0.2-1.2-0.6-1.6c-0.4-0.4-0.9-0.6-1.7-0.6c-0.7,0-1.2,0.2-1.6,0.5c-0.4,0.3-0.6,0.8-0.6,1.3h-2.9   c0-0.7,0.2-1.4,0.7-2c0.5-0.6,1.1-1.1,1.9-1.5c0.8-0.4,1.7-0.5,2.7-0.5c1.5,0,2.7,0.4,3.6,1.1c0.9,0.8,1.4,1.8,1.4,3.2v5.8   c0,1.2,0.2,2.1,0.5,2.8v0.2h-3c-0.1-0.2-0.2-0.7-0.3-1.2c-0.9,1-2.1,1.5-3.4,1.5c-1.3,0-2.4-0.4-3.2-1.1   C321,118.9,320.6,118,320.6,116.9"></path>
	<path class="st0" d="M334.6,107.5h2.8l0.1,1.5c1-1.2,2.2-1.7,3.8-1.7c2.7,0,4.1,1.5,4.1,4.6v8.6h-2.9v-8.4c0-0.8-0.2-1.4-0.5-1.8   c-0.4-0.4-0.9-0.6-1.8-0.6c-1.2,0-2.1,0.5-2.6,1.6v9.2h-2.9V107.5z"></path>
	<path class="st0" d="M348.1,114.1v-0.3c0-2,0.5-3.6,1.6-4.7c1.1-1.2,2.5-1.8,4.3-1.8c1.5,0,2.8,0.4,3.8,1.3c1,0.9,1.5,2.1,1.5,3.5   h-2.8c0-0.7-0.3-1.4-0.8-1.8c-0.5-0.5-1.1-0.7-1.8-0.7c-0.9,0-1.7,0.3-2.2,1c-0.5,0.7-0.8,1.7-0.8,3.1v0.5c0,1.4,0.3,2.5,0.8,3.1   c0.5,0.7,1.2,1,2.2,1c0.7,0,1.3-0.2,1.8-0.6c0.5-0.4,0.7-0.9,0.8-1.6h2.8c0,0.8-0.3,1.6-0.8,2.3c-0.5,0.7-1.1,1.3-1.9,1.7   c-0.8,0.4-1.7,0.6-2.6,0.6c-1.8,0-3.3-0.6-4.3-1.8C348.7,117.8,348.1,116.2,348.1,114.1"></path>
	<path class="st0" d="M365,120.5h-2.9v-13h2.9V120.5z M361.9,104.2c0-0.4,0.1-0.8,0.4-1.1c0.3-0.3,0.7-0.4,1.2-0.4   c0.5,0,0.9,0.1,1.2,0.4c0.3,0.3,0.4,0.7,0.4,1.1c0,0.4-0.1,0.8-0.4,1.1c-0.3,0.3-0.7,0.4-1.2,0.4c-0.5,0-0.9-0.1-1.2-0.4   C362,105,361.9,104.6,361.9,104.2"></path>
	<path class="st0" d="M371,112.8h5.6v-0.2c-0.1-1-0.3-1.7-0.8-2.2c-0.5-0.5-1.1-0.7-1.9-0.7c-0.8,0-1.5,0.3-1.9,0.8   C371.5,111,371.1,111.8,371,112.8 M368,114.4V114c0-1.3,0.2-2.5,0.8-3.5c0.5-1,1.2-1.8,2.1-2.4c0.9-0.6,1.9-0.9,3-0.9   c1.8,0,3.1,0.6,4.1,1.7c1,1.1,1.5,2.7,1.5,4.8v1.2H371c0.1,1.1,0.4,1.9,1.1,2.5c0.6,0.6,1.4,0.9,2.4,0.9c1.3,0,2.4-0.5,3.3-1.6   l1.6,1.5c-0.5,0.8-1.2,1.4-2.1,1.8c-0.9,0.4-1.8,0.6-2.9,0.6c-1.9,0-3.4-0.6-4.5-1.7C368.6,117.8,368,116.3,368,114.4"></path>
	<path class="st0" d="M384.3,116.4c0,0.7,0.3,1.2,0.8,1.6c0.5,0.4,1.1,0.6,1.9,0.6c0.8,0,1.4-0.1,1.8-0.4c0.4-0.3,0.6-0.7,0.6-1.1   c0-0.5-0.2-0.9-0.6-1.2c-0.4-0.3-1.1-0.5-2.1-0.7c-1-0.2-1.8-0.5-2.5-0.8c-1.5-0.7-2.2-1.7-2.2-3.1c0-1.1,0.5-2.1,1.4-2.8   c0.9-0.8,2.1-1.1,3.6-1.1c1.6,0,2.8,0.4,3.8,1.1c1,0.8,1.4,1.8,1.4,3h-2.9c0-0.6-0.2-1-0.6-1.4c-0.4-0.4-1-0.6-1.7-0.6   c-0.6,0-1.2,0.1-1.6,0.4c-0.4,0.3-0.6,0.7-0.6,1.2c0,0.4,0.2,0.8,0.6,1c0.4,0.2,1.1,0.5,2.3,0.7c1.1,0.3,2,0.6,2.7,0.9   c0.7,0.3,1.1,0.8,1.5,1.3c0.3,0.5,0.5,1.1,0.5,1.8c0,1.2-0.5,2.1-1.5,2.8c-1,0.7-2.2,1.1-3.8,1.1c-1.1,0-2-0.2-2.9-0.6   c-0.8-0.4-1.5-0.9-1.9-1.6c-0.5-0.7-0.7-1.4-0.7-2.2H384.3z"></path>
	<path class="st0" d="M404.8,118.1h3.4c1,0,1.7-0.2,2.2-0.7c0.5-0.5,0.8-1.1,0.8-2c0-1.8-0.9-2.7-2.8-2.8h-3.6V118.1z M404.8,110.4   h3c0.9,0,1.7-0.2,2.2-0.6c0.5-0.4,0.8-1,0.8-1.8c0-0.9-0.2-1.5-0.7-1.9c-0.5-0.4-1.3-0.6-2.3-0.6h-3V110.4z M407.8,103   c2,0,3.5,0.4,4.5,1.2c1,0.8,1.6,2,1.6,3.5c0,0.8-0.2,1.5-0.7,2.2c-0.4,0.6-1.1,1.1-1.9,1.5c0.9,0.3,1.7,0.7,2.2,1.4   c0.5,0.7,0.8,1.6,0.8,2.5c0,1.6-0.5,2.9-1.6,3.8c-1.1,0.9-2.6,1.3-4.5,1.3h-6.4V103H407.8z"></path>
	<path class="st0" d="M419.7,114.1c0,1.3,0.3,2.4,0.8,3.1c0.6,0.8,1.3,1.1,2.3,1.1c1,0,1.8-0.4,2.3-1.1c0.5-0.8,0.8-1.9,0.8-3.4   c0-1.3-0.3-2.4-0.9-3.1c-0.6-0.8-1.3-1.2-2.3-1.2c-1,0-1.7,0.4-2.3,1.1C420,111.5,419.7,112.6,419.7,114.1 M416.8,114v-0.1   c0-1.3,0.3-2.4,0.8-3.4c0.5-1,1.2-1.8,2.1-2.3c0.9-0.5,2-0.8,3.2-0.8c1.8,0,3.2,0.6,4.3,1.7c1.1,1.1,1.7,2.6,1.8,4.5l0,0.7   c0,1.3-0.2,2.4-0.7,3.4c-0.5,1-1.2,1.8-2.1,2.3c-0.9,0.6-2,0.8-3.2,0.8c-1.8,0-3.3-0.6-4.4-1.8C417.4,117.7,416.8,116.1,416.8,114"></path>
	<path class="st0" d="M434.2,116.6c0,0.6,0.2,1,0.6,1.3c0.4,0.3,0.9,0.5,1.5,0.5c0.6,0,1.1-0.1,1.6-0.4c0.5-0.3,0.9-0.7,1.1-1.1   v-2.4h-1.6c-1.1,0-1.9,0.2-2.4,0.6C434.5,115.4,434.2,115.9,434.2,116.6 M431.3,116.9c0-1.4,0.5-2.4,1.5-3.2c1-0.7,2.5-1.1,4.4-1.1   h1.8v-0.9c0-0.7-0.2-1.2-0.6-1.6c-0.4-0.4-0.9-0.6-1.7-0.6c-0.7,0-1.2,0.2-1.6,0.5c-0.4,0.3-0.6,0.8-0.6,1.3h-2.9   c0-0.7,0.2-1.4,0.7-2c0.5-0.6,1.1-1.1,1.9-1.5c0.8-0.4,1.7-0.5,2.7-0.5c1.5,0,2.7,0.4,3.6,1.1c0.9,0.8,1.4,1.8,1.4,3.2v5.8   c0,1.2,0.2,2.1,0.5,2.8v0.2h-3c-0.1-0.2-0.2-0.7-0.3-1.2c-0.9,1-2.1,1.5-3.4,1.5c-1.3,0-2.4-0.4-3.2-1.1   C431.7,118.9,431.3,118,431.3,116.9"></path>
	<path class="st0" d="M448.1,107.5l0.1,1.5c0.7-1.1,1.7-1.7,2.9-1.7c0.4,0,0.8,0.1,1,0.2l0,2.7c-0.4-0.1-0.8-0.1-1.2-0.1   c-1.3,0-2.2,0.5-2.7,1.5v8.9h-2.9v-13H448.1z"></path>
	<path class="st0" d="M456.7,114.2c0,1.3,0.3,2.4,0.8,3.1c0.5,0.7,1.2,1.1,2.2,1.1c1.2,0,2.1-0.5,2.6-1.6v-5.5   c-0.5-1-1.4-1.6-2.6-1.6c-0.9,0-1.7,0.4-2.2,1.1C456.9,111.5,456.7,112.7,456.7,114.2 M453.8,113.9c0-2,0.5-3.6,1.4-4.8   c0.9-1.2,2.2-1.8,3.7-1.8c1.4,0,2.5,0.5,3.3,1.4v-6.6h2.9v18.4h-2.6l-0.1-1.3c-0.9,1.1-2,1.6-3.5,1.6c-1.5,0-2.8-0.6-3.7-1.8   C454.2,117.7,453.8,116,453.8,113.9"></path>
	<path class="st0" d="M152.1,88.3h3.4c1,0,1.7-0.2,2.2-0.7c0.5-0.5,0.8-1.1,0.8-2c0-1.8-0.9-2.7-2.8-2.8h-3.6V88.3z M152.1,80.6h3   c0.9,0,1.7-0.2,2.2-0.6c0.5-0.4,0.8-1,0.8-1.8c0-0.9-0.2-1.5-0.7-1.9c-0.5-0.4-1.3-0.6-2.3-0.6h-3V80.6z M155,73.2   c2,0,3.5,0.4,4.5,1.2c1,0.8,1.5,2,1.5,3.5c0,0.8-0.2,1.5-0.6,2.2c-0.4,0.6-1.1,1.1-1.9,1.5c0.9,0.3,1.7,0.7,2.2,1.4   c0.5,0.7,0.8,1.6,0.8,2.5c0,1.6-0.5,2.9-1.6,3.8c-1.1,0.9-2.6,1.3-4.5,1.3h-6.4V73.2H155z"></path>
	<path class="st0" d="M166.6,84.3c0,1.3,0.3,2.4,0.8,3.1c0.6,0.8,1.3,1.1,2.3,1.1c1,0,1.7-0.4,2.3-1.1c0.5-0.8,0.8-1.9,0.8-3.4   c0-1.3-0.3-2.4-0.8-3.1c-0.6-0.8-1.3-1.2-2.3-1.2c-1,0-1.7,0.4-2.3,1.1C166.9,81.7,166.6,82.8,166.6,84.3 M163.7,84.2v-0.1   c0-1.3,0.3-2.4,0.8-3.4c0.5-1,1.2-1.8,2.1-2.3c0.9-0.5,2-0.8,3.1-0.8c1.8,0,3.2,0.6,4.3,1.7c1.1,1.1,1.7,2.6,1.8,4.5l0,0.7   c0,1.3-0.2,2.4-0.7,3.4c-0.5,1-1.2,1.8-2.1,2.3c-0.9,0.6-2,0.8-3.2,0.8c-1.8,0-3.3-0.6-4.4-1.8C164.3,87.9,163.7,86.2,163.7,84.2"></path>
	<path class="st0" d="M181,77.7l0.1,1.5c0.7-1.1,1.7-1.7,2.9-1.7c0.4,0,0.8,0.1,1,0.2l0,2.7c-0.4-0.1-0.8-0.1-1.2-0.1   c-1.3,0-2.2,0.5-2.7,1.5v8.9h-2.9v-13H181z"></path>
	<path class="st0" d="M189.3,84.3c0,1.3,0.3,2.4,0.8,3.1c0.5,0.7,1.2,1.1,2.2,1.1c1.2,0,2.1-0.5,2.6-1.6v-5.5   c-0.5-1-1.4-1.6-2.6-1.6c-0.9,0-1.7,0.4-2.2,1.1C189.5,81.7,189.3,82.8,189.3,84.3 M186.3,84.1c0-2,0.5-3.6,1.4-4.8   c0.9-1.2,2.2-1.8,3.7-1.8c1.4,0,2.5,0.5,3.3,1.4v-6.6h2.9v18.4h-2.6l-0.1-1.3c-0.9,1.1-2,1.6-3.5,1.6c-1.5,0-2.7-0.6-3.7-1.8   C186.8,87.9,186.3,86.2,186.3,84.1"></path>
	<path class="st0" d="M206.8,86.1v-8.4h2.9v8.4c0,1.6,0.7,2.5,2,2.5c1.4,0,2.4-0.5,2.9-1.5v-9.3h2.9v13h-2.7l-0.1-1.3   c-0.9,1-2.1,1.5-3.6,1.5c-1.4,0-2.5-0.4-3.2-1.2C207.1,88.9,206.8,87.7,206.8,86.1"></path>
	<path class="st0" d="M223.2,77.7l0.1,1.4c0.9-1.1,2.2-1.6,3.7-1.6c1.7,0,2.9,0.7,3.6,2c0.9-1.3,2.3-2,4-2c1.4,0,2.5,0.4,3.2,1.2   c0.7,0.8,1.1,2,1.1,3.5v8.5H236v-8.4c0-0.8-0.2-1.4-0.5-1.8c-0.4-0.4-1-0.6-1.8-0.6c-0.7,0-1.2,0.2-1.6,0.5   c-0.4,0.4-0.7,0.8-0.9,1.4l0,8.9h-2.9v-8.5c0-1.5-0.8-2.3-2.3-2.3c-1.2,0-2,0.5-2.5,1.4v9.4h-2.9v-13H223.2z"></path>
</g>
<polygon class="st0" points="247,75.7 247,73.2 260.8,73.2 260.8,75.7 255.4,75.7 255.4,90.7 252.4,90.7 252.4,75.7 "></polygon>
<g>
	<path class="st0" d="M262.8,72.3h2.9v6.9c1-1.1,2.2-1.7,3.6-1.7c2.8,0,4.2,1.6,4.2,4.7v8.5h-2.9v-8.4c0-0.9-0.2-1.5-0.6-1.9   c-0.4-0.4-1-0.6-1.7-0.6c-1.2,0-2,0.5-2.6,1.6v9.3h-2.9V72.3z"></path>
	<path class="st0" d="M279.6,90.7h-2.9v-13h2.9V90.7z M276.5,74.3c0-0.4,0.1-0.8,0.4-1.1c0.3-0.3,0.7-0.4,1.2-0.4   c0.5,0,0.9,0.1,1.2,0.4c0.3,0.3,0.4,0.7,0.4,1.1c0,0.4-0.1,0.8-0.4,1.1c-0.3,0.3-0.7,0.4-1.2,0.4c-0.5,0-0.9-0.1-1.2-0.4   C276.6,75.1,276.5,74.8,276.5,74.3"></path>
	<path class="st0" d="M285.1,84.3c0,1.3,0.3,2.4,0.8,3.1c0.6,0.8,1.3,1.1,2.3,1.1c1,0,1.7-0.4,2.3-1.1c0.5-0.8,0.8-1.9,0.8-3.4   c0-1.3-0.3-2.4-0.8-3.1c-0.6-0.8-1.3-1.2-2.3-1.2c-1,0-1.7,0.4-2.3,1.1C285.4,81.7,285.1,82.8,285.1,84.3 M282.2,84.2v-0.1   c0-1.3,0.3-2.4,0.8-3.4c0.5-1,1.2-1.8,2.1-2.3c0.9-0.5,2-0.8,3.1-0.8c1.8,0,3.2,0.6,4.3,1.7c1.1,1.1,1.7,2.6,1.8,4.5l0,0.7   c0,1.3-0.2,2.4-0.7,3.4c-0.5,1-1.2,1.8-2.1,2.3c-0.9,0.6-2,0.8-3.2,0.8c-1.8,0-3.3-0.6-4.4-1.8C282.8,87.9,282.2,86.2,282.2,84.2"></path>
	<path class="st0" d="M296.7,77.7h2.7l0.1,1.5c1-1.2,2.2-1.7,3.8-1.7c2.7,0,4.1,1.5,4.1,4.6v8.6h-2.9v-8.4c0-0.8-0.2-1.4-0.5-1.8   c-0.4-0.4-0.9-0.6-1.7-0.6c-1.2,0-2,0.5-2.6,1.6v9.2h-2.9V77.7z"></path>
	<path class="st0" d="M314.3,75.9l2.3-3.6h3.3l-3.3,3.6H314.3z M312.8,84.3c0,1.3,0.3,2.4,0.8,3.1c0.6,0.8,1.3,1.1,2.3,1.1   c1,0,1.7-0.4,2.3-1.1c0.5-0.8,0.8-1.9,0.8-3.4c0-1.3-0.3-2.4-0.8-3.1c-0.6-0.8-1.3-1.2-2.3-1.2c-1,0-1.7,0.4-2.3,1.1   C313,81.7,312.8,82.8,312.8,84.3 M309.9,84.1c0-1.3,0.3-2.4,0.8-3.4c0.5-1,1.2-1.8,2.1-2.3c0.9-0.5,2-0.8,3.1-0.8   c1.8,0,3.2,0.6,4.3,1.7c1.1,1.1,1.7,2.6,1.8,4.5l0,0.7c0,1.3-0.2,2.4-0.7,3.4c-0.5,1-1.2,1.8-2.1,2.3c-0.9,0.6-2,0.8-3.2,0.8   c-1.8,0-3.3-0.6-4.4-1.8c-1.1-1.2-1.6-2.8-1.6-4.9V84.1z"></path>
	<path class="st0" d="M324.3,77.7h2.7l0.1,1.5c1-1.2,2.2-1.7,3.8-1.7c2.7,0,4.1,1.5,4.1,4.6v8.6h-2.9v-8.4c0-0.8-0.2-1.4-0.5-1.8   c-0.4-0.4-0.9-0.6-1.7-0.6c-1.2,0-2.1,0.5-2.6,1.6v9.2h-2.9V77.7z"></path>
	<path class="st0" d="M336.6,77.7h2.1v-3.2h2.9v3.2h2.3v2.2h-2.3v7.2c0,0.5,0.1,0.9,0.3,1.1c0.2,0.2,0.5,0.3,1,0.3   c0.3,0,0.7,0,1-0.1v2.3c-0.7,0.2-1.3,0.3-1.9,0.3c-2.2,0-3.4-1.2-3.4-3.7v-7.3h-2.1V77.7z"></path>
	<path class="st0" d="M348.7,86.7c0,0.6,0.2,1,0.6,1.3c0.4,0.3,0.9,0.5,1.5,0.5c0.6,0,1.1-0.1,1.6-0.4c0.5-0.3,0.9-0.7,1.1-1.1v-2.4   H352c-1.1,0-1.9,0.2-2.4,0.6C349,85.5,348.7,86.1,348.7,86.7 M345.8,87c0-1.4,0.5-2.4,1.5-3.2c1-0.7,2.5-1.1,4.4-1.1h1.8v-0.9   c0-0.7-0.2-1.2-0.6-1.6c-0.4-0.4-0.9-0.6-1.7-0.6c-0.7,0-1.2,0.2-1.6,0.5c-0.4,0.3-0.6,0.8-0.6,1.3h-2.9c0-0.7,0.2-1.4,0.7-2   c0.5-0.6,1.1-1.1,1.9-1.5c0.8-0.4,1.7-0.5,2.7-0.5c1.5,0,2.7,0.4,3.6,1.1c0.9,0.8,1.4,1.8,1.4,3.2v5.8c0,1.2,0.2,2.1,0.5,2.8v0.2   h-3c-0.1-0.2-0.2-0.7-0.3-1.2c-0.9,1-2.1,1.5-3.4,1.5c-1.3,0-2.4-0.4-3.2-1.1C346.2,89.1,345.8,88.1,345.8,87"></path>
	<path class="st0" d="M358.9,84.3V84c0-2,0.5-3.6,1.6-4.7c1.1-1.2,2.5-1.8,4.3-1.8c1.5,0,2.8,0.4,3.8,1.3c1,0.9,1.5,2.1,1.5,3.5   h-2.7c0-0.7-0.3-1.4-0.8-1.8c-0.5-0.5-1.1-0.7-1.8-0.7c-0.9,0-1.7,0.3-2.2,1c-0.5,0.7-0.8,1.7-0.8,3.1v0.5c0,1.4,0.3,2.5,0.8,3.1   c0.5,0.7,1.2,1,2.2,1c0.7,0,1.3-0.2,1.8-0.6c0.5-0.4,0.7-0.9,0.8-1.6h2.7c0,0.8-0.3,1.6-0.8,2.3c-0.5,0.7-1.1,1.3-1.9,1.7   c-0.8,0.4-1.7,0.6-2.6,0.6c-1.8,0-3.3-0.6-4.3-1.8C359.5,88,358.9,86.4,358.9,84.3"></path>
	<path class="st0" d="M372.3,72.3h2.9v6.9c1-1.1,2.2-1.7,3.6-1.7c2.8,0,4.2,1.6,4.2,4.7v8.5h-2.9v-8.4c0-0.9-0.2-1.5-0.6-1.9   c-0.4-0.4-1-0.6-1.7-0.6c-1.2,0-2,0.5-2.6,1.6v9.3h-2.9V72.3z"></path>
	<path class="st0" d="M384.6,77.7h2.1v-3.2h2.9v3.2h2.3v2.2h-2.3v7.2c0,0.5,0.1,0.9,0.3,1.1c0.2,0.2,0.5,0.3,1,0.3   c0.3,0,0.7,0,1-0.1v2.3c-0.7,0.2-1.3,0.3-1.9,0.3c-2.2,0-3.4-1.2-3.4-3.7v-7.3h-2.1V77.7z"></path>
	<path class="st0" d="M396.6,86.7c0,0.6,0.2,1,0.6,1.3c0.4,0.3,0.9,0.5,1.5,0.5c0.6,0,1.1-0.1,1.6-0.4c0.5-0.3,0.9-0.7,1.1-1.1v-2.4   h-1.6c-1.1,0-1.9,0.2-2.4,0.6C396.9,85.5,396.6,86.1,396.6,86.7 M393.7,87c0-1.4,0.5-2.4,1.5-3.2c1-0.7,2.5-1.1,4.4-1.1h1.8v-0.9   c0-0.7-0.2-1.2-0.6-1.6c-0.4-0.4-0.9-0.6-1.7-0.6c-0.7,0-1.2,0.2-1.6,0.5c-0.4,0.3-0.6,0.8-0.6,1.3H394c0-0.7,0.2-1.4,0.7-2   c0.5-0.6,1.1-1.1,1.9-1.5c0.8-0.4,1.7-0.5,2.7-0.5c1.5,0,2.7,0.4,3.6,1.1c0.9,0.8,1.4,1.8,1.4,3.2v5.8c0,1.2,0.2,2.1,0.5,2.8v0.2   h-3c-0.1-0.2-0.2-0.7-0.3-1.2c-0.9,1-2.1,1.5-3.4,1.5c-1.3,0-2.4-0.4-3.2-1.1C394.1,89.1,393.7,88.1,393.7,87"></path>
</g>
<path class="st0" d="M410,72.3h3.3L410,76h-2.3L410,72.3z M410.6,90.7h-2.9v-13h2.9V90.7z"></path>
<g>
	<path class="st0" d="M419.7,81.3c0-1.6,0.3-3.1,0.9-4.4c0.6-1.3,1.4-2.2,2.5-2.9c1.1-0.7,2.4-1,3.8-1c1.9,0,3.5,0.5,4.7,1.6   c1.2,1,1.9,2.5,2.1,4.4h-3c-0.1-1.3-0.5-2.2-1.1-2.7c-0.6-0.6-1.4-0.8-2.6-0.8c-1.3,0-2.3,0.5-3,1.4c-0.7,1-1.1,2.4-1.1,4.2v1.5   c0,1.9,0.3,3.3,1,4.3c0.7,1,1.7,1.5,3,1.5c1.2,0,2.1-0.3,2.7-0.8c0.6-0.5,1-1.4,1.1-2.7h3c-0.2,1.9-0.9,3.3-2.1,4.4   c-1.2,1-2.8,1.6-4.8,1.6c-1.4,0-2.6-0.3-3.7-1c-1.1-0.7-1.9-1.6-2.5-2.8c-0.6-1.2-0.9-2.6-0.9-4.2V81.3z"></path>
	<path class="st0" d="M439.9,75.9l2.3-3.6h3.3l-3.3,3.6H439.9z M438.4,84.3c0,1.3,0.3,2.4,0.8,3.1c0.6,0.8,1.3,1.1,2.3,1.1   c1,0,1.7-0.4,2.3-1.1c0.5-0.8,0.8-1.9,0.8-3.4c0-1.3-0.3-2.4-0.8-3.1c-0.6-0.8-1.3-1.2-2.3-1.2c-1,0-1.7,0.4-2.3,1.1   C438.7,81.7,438.4,82.8,438.4,84.3 M435.5,84.1c0-1.3,0.3-2.4,0.8-3.4c0.5-1,1.2-1.8,2.1-2.3c0.9-0.5,2-0.8,3.1-0.8   c1.8,0,3.2,0.6,4.3,1.7c1.1,1.1,1.7,2.6,1.8,4.5l0,0.7c0,1.3-0.2,2.4-0.7,3.4c-0.5,1-1.2,1.8-2.1,2.3c-0.9,0.6-2,0.8-3.2,0.8   c-1.8,0-3.3-0.6-4.4-1.8c-1.1-1.2-1.6-2.8-1.6-4.9V84.1z"></path>
	<path class="st0" d="M449.9,77.7h2.7l0.1,1.5c1-1.2,2.2-1.7,3.8-1.7c2.7,0,4.1,1.5,4.1,4.6v8.6h-2.9v-8.4c0-0.8-0.2-1.4-0.5-1.8   c-0.4-0.4-0.9-0.6-1.7-0.6c-1.2,0-2.1,0.5-2.6,1.6v9.2h-2.9V77.7z"></path>
	<path class="st0" d="M466.1,86.7c0,0.6,0.2,1,0.6,1.3c0.4,0.3,0.9,0.5,1.5,0.5c0.6,0,1.1-0.1,1.6-0.4c0.5-0.3,0.9-0.7,1.1-1.1v-2.4   h-1.6c-1.1,0-1.9,0.2-2.4,0.6C466.4,85.5,466.1,86.1,466.1,86.7 M463.2,87c0-1.4,0.5-2.4,1.5-3.2c1-0.7,2.5-1.1,4.4-1.1h1.8v-0.9   c0-0.7-0.2-1.2-0.6-1.6c-0.4-0.4-0.9-0.6-1.7-0.6c-0.7,0-1.2,0.2-1.6,0.5c-0.4,0.3-0.6,0.8-0.6,1.3h-2.9c0-0.7,0.2-1.4,0.7-2   c0.5-0.6,1.1-1.1,1.9-1.5c0.8-0.4,1.7-0.5,2.7-0.5c1.5,0,2.7,0.4,3.6,1.1c0.9,0.8,1.4,1.8,1.4,3.2v5.8c0,1.2,0.2,2.1,0.5,2.8v0.2   h-3c-0.1-0.2-0.2-0.7-0.3-1.2c-0.9,1-2.1,1.5-3.4,1.5c-1.3,0-2.4-0.4-3.2-1.1C463.6,89.1,463.2,88.1,463.2,87"></path>
	<path class="st0" d="M480,90.7h-2.9v-13h2.9V90.7z M476.9,74.3c0-0.4,0.1-0.8,0.4-1.1c0.3-0.3,0.7-0.4,1.2-0.4   c0.5,0,0.9,0.1,1.2,0.4c0.3,0.3,0.4,0.7,0.4,1.1c0,0.4-0.1,0.8-0.4,1.1c-0.3,0.3-0.7,0.4-1.2,0.4c-0.5,0-0.9-0.1-1.2-0.4   C477.1,75.1,476.9,74.8,476.9,74.3"></path>
	<path class="st0" d="M481.8,77.7h2.1v-3.2h2.9v3.2h2.3v2.2h-2.3v7.2c0,0.5,0.1,0.9,0.3,1.1c0.2,0.2,0.5,0.3,1,0.3   c0.3,0,0.7,0,1-0.1v2.3c-0.7,0.2-1.3,0.3-1.9,0.3c-2.2,0-3.4-1.2-3.4-3.7v-7.3h-2.1V77.7z"></path>
	<path class="st0" d="M491.3,72.3h2.9v6.9c1-1.1,2.2-1.7,3.6-1.7c2.8,0,4.2,1.6,4.2,4.7v8.5h-2.9v-8.4c0-0.9-0.2-1.5-0.6-1.9   c-0.4-0.4-1-0.6-1.7-0.6c-1.2,0-2,0.5-2.6,1.6v9.3h-2.9V72.3z"></path>
	<path class="st0" d="M507.5,83h5.6v-0.2c-0.1-1-0.3-1.7-0.8-2.2c-0.5-0.5-1.1-0.7-1.9-0.7c-0.8,0-1.4,0.3-1.9,0.8   C507.9,81.2,507.6,82,507.5,83 M504.5,84.5v-0.4c0-1.3,0.2-2.5,0.7-3.5c0.5-1,1.2-1.8,2.1-2.4c0.9-0.6,1.9-0.9,3-0.9   c1.8,0,3.1,0.6,4.1,1.7c1,1.1,1.4,2.7,1.4,4.8v1.2h-8.5c0.1,1.1,0.4,1.9,1.1,2.5c0.6,0.6,1.4,0.9,2.4,0.9c1.3,0,2.4-0.5,3.3-1.6   l1.6,1.5c-0.5,0.8-1.2,1.4-2.1,1.8c-0.9,0.4-1.8,0.6-2.9,0.6c-1.8,0-3.3-0.6-4.5-1.7C505.1,88,504.5,86.5,504.5,84.5"></path>
</g>
<rect x="149" y="96.3" class="st0" width="367.4" height="1.2"></rect>
</svg>
